{
  "accessors": [
    {
      "bufferView": 2,
      "componentType": 5126,
      "count": 348,
      "max": [
        0.3622649908065796,
        1.1558589935302734,
        0.40920600295066833
      ],
      "min": [
        -0.45222899317741394,
        -0.6250799894332886,
        -0.40654999017715454
      ],
      "type": "VEC3"
    },
    {
      "bufferView": 2,
      "byteOffset": 4176,
      "componentType": 5126,
      "count": 348,
      "max": [
        0.9950384497642517,
        0.7087170481681824,
        0.9951316714286804
      ],
      "min": [
        -0.9987205266952515,
        -0.8803096413612366,
        -0.9993311166763306
      ],
      "type": "VEC3"
    },
    {
      "bufferView": 1,
      "componentType": 5126,
      "count": 348,
      "max": [
        0.98642498254776,
        0.9980080127716064
      ],
      "min": [
        0.001969000091776252,
        0.0019920000340789557
      ],
      "type": "VEC2"
    },
    {
      "bufferView": 0,
      "componentType": 5125,
      "count": 348,
      "type": "SCALAR"
    }
  ],
  "asset": {
    "extras": {
      "author": "AliciaYamashita (https://sketchfab.com/AliciaYamashita)",
      "license": "SKETCHFAB Standard (https://sketchfab.com/licenses)",
      "source": "https://sketchfab.com/3d-models/handpainted-crystal-08f02df16e054295be20af2042a3b5b7",
      "title": "Handpainted Crystal"
    },
    "generator": "Sketchfab-12.67.0",
    "version": "2.0"
  },
  "bufferViews": [
    {
      "buffer": 0,
      "byteLength": 1392,
      "name": "floatBufferViews",
      "target": 34963
    },
    {
      "buffer": 0,
      "byteLength": 2784,
      "byteOffset": 1392,
      "byteStride": 8,
      "name": "floatBufferViews",
      "target": 34962
    },
    {
      "buffer": 0,
      "byteLength": 8352,
      "byteOffset": 4176,
      "byteStride": 12,
      "name": "floatBufferViews",
      "target": 34962
    }
  ],
  "buffers": [
    {
      "byteLength": 12528,
      "uri": "scene.bin"
    }
  ],
  "images": [
    {
      "uri": "textures/lambert4_baseColor.png"
    }
  ],
  "materials": [
    {
      "doubleSided": true,
      "name": "lambert4",
      "pbrMetallicRoughness": {
        "baseColorTexture": {
          "index": 0
        },
        "metallicFactor": 0.0,
        "roughnessFactor": 0.11
      }
    }
  ],
  "meshes": [
    {
      "name": "crystalLow:Mesh_lambert4_0",
      "primitives": [
        {
          "attributes": {
            "NORMAL": 1,
            "POSITION": 0,
            "TEXCOORD_0": 2
          },
          "indices": 3,
          "material": 0,
          "mode": 4
        }
      ]
    }
  ],
  "nodes": [
    {
      "children": [
        1
      ],
      "matrix": [
        1.0,
        0.0,
        0.0,
        0.0,
        0.0,
        2.220446049250313e-16,
        -1.0,
        0.0,
        0.0,
        1.0,
        2.220446049250313e-16,
        0.0,
        0.0,
        0.0,
        0.0,
        1.0
      ],
      "name": "Sketchfab_model"
    },
    {
      "children": [
        2
      ],
      "matrix": [
        1.0,
        0.0,
        0.0,
        0.0,
        0.0,
        0.0,
        1.0,
        0.0,
        0.0,
        -1.0,
        0.0,
        0.0,
        0.0,
        0.0,
        0.0,
        1.0
      ],
      "name": "937021d492b34f0e9c8457b0f13aa0fe.fbx"
    },
    {
      "children": [
        3
      ],
      "name": "RootNode"
    },
    {
      "children": [
        4
      ],
      "name": "crystalLow:Mesh"
    },
    {
      "mesh": 0,
      "name": "crystalLow:Mesh_lambert4_0"
    }
  ],
  "samplers": [
    {
      "magFilter": 9729,
      "minFilter": 9987,
      "wrapS": 10497,
      "wrapT": 10497
    }
  ],
  "scene": 0,
  "scenes": [
    {
      "name": "Sketchfab_Scene",
      "nodes": [
        0
      ]
    }
  ],
  "textures": [
    {
      "sampler": 0,
      "source": 0
    }
  ]
}
